# xmcd
#
# Track frame offsets:
#	150
#	11480
#	23313
#	37512
#	51564
#	64730
#	77562
#	93825
#	105018
#	120256
#	135447
#
# Disc length: 2067 seconds
#
# Revision: 0
# Processed by: cddbd v1.5.2PL0 Copyright (c) Steve Scherf et al.
# Submitted via: EasyCDDAExtractor 16.0.6.1
#
DISCID=6808110b
DTITLE=Συλλογικός δίσκος - Παραλογές-1975, Αρ. Κουνάδης-Βαγγ. Γκούφας
DYEAR=1996
DGENRE=Έντεχνη λαϊκή
TTITLE0=Βιτάλη Ελένη - Το μαρούλι
TTITLE1=Καμένος Κώστας - Πού 'ν' ο φίλος μου
TTITLE2=Γαδέδη Στέλλα - Μπήκανε δίσεχτοι καιροί
TTITLE3=Κωστή Έλενα - Πρωϊνό σεργιάνι
TTITLE4=Βιτάλη Ελένη - Άγουρη αγάπη
TTITLE5=Καμένος Κώστας-Γαδέδη Στέλλα - Παραλογή
TTITLE6=Καμένος Κώστας-Κωστή Έλενα - Φρεγάδα
TTITLE7=Κωστή Έλενα - Τον παλιό τον όρκο
TTITLE8=Γαδέδη Στέλλα - Το ψωμί του δείπνου
TTITLE9=Βιτάλη Ελένη - Ψηλό κλωνί βασιλικό
TTITLE10=Καμένος Κώστας - Αντάρτικο
EXTD=
EXTT0=
EXTT1=
EXTT2=
EXTT3=
EXTT4=
EXTT5=
EXTT6=
EXTT7=
EXTT8=
EXTT9=
EXTT10=
PLAYORDER=
